solid COMSOL rendering object dif1
facet normal -1 0 0
outer loop
vertex 10 20 0
vertex 10 0 0
vertex 10 0 1
endloop
endfacet
facet normal -1 0 0
outer loop
vertex 10 20 1
vertex 10 0 1
vertex 10 0 2
endloop
endfacet
facet normal -1 0 0
outer loop
vertex 10 0 2
vertex 10 20 2
vertex 10 20 1
endloop
endfacet
facet normal -1 0 0
outer loop
vertex 10 0 1
vertex 10 20 1
vertex 10 20 0
endloop
endfacet
facet normal -0 -1 -0
outer loop
vertex 10 0 2
vertex 10 0 1
vertex 16 0 1
endloop
endfacet
facet normal -0 -1 -0
outer loop
vertex 16 0 0
vertex 16 0 1
vertex 10 0 1
endloop
endfacet
facet normal -0 -1 -0
outer loop
vertex 10 0 1
vertex 10 0 0
vertex 16 0 0
endloop
endfacet
facet normal -0 -1 -0
outer loop
vertex 16 0 1
vertex 16 0 2
vertex 10 0 2
endloop
endfacet
facet normal -0 -0 -1
outer loop
vertex 10 0 0
vertex 10 20 0
vertex 16 20 0
endloop
endfacet
facet normal -0 -0 -1
outer loop
vertex 10 20 0
vertex 14 22 0
vertex 16 20 0
endloop
endfacet
facet normal -0 -0 -1
outer loop
vertex 14.8888893127441 30 0
vertex 14 22 0
vertex 12 22 0
endloop
endfacet
facet normal -0 -0 -1
outer loop
vertex 14 22 0
vertex 10 20 0
vertex 12 22 0
endloop
endfacet
facet normal -0 -0 -1
outer loop
vertex 12 22 0
vertex 11.1111106872559 30 0
vertex 14.8888893127441 30 0
endloop
endfacet
facet normal -0 -0 -1
outer loop
vertex 16 60 0
vertex 16 40 0
vertex 10 40 0
endloop
endfacet
facet normal -0 -0 -1
outer loop
vertex 16 40 0
vertex 14.8888893127441 30 0
vertex 11.1111106872559 30 0
endloop
endfacet
facet normal -0 -0 -1
outer loop
vertex 11.1111106872559 30 0
vertex 10 40 0
vertex 16 40 0
endloop
endfacet
facet normal -0 -0 -1
outer loop
vertex 10 40 0
vertex 10 60 0
vertex 16 60 0
endloop
endfacet
facet normal -0 -0 -1
outer loop
vertex 16 20 0
vertex 16 0 0
vertex 10 0 0
endloop
endfacet
facet normal 0 0 1
outer loop
vertex 16 0 2
vertex 16 20 2
vertex 10 20 2
endloop
endfacet
facet normal 0 0 1
outer loop
vertex 16 20 2
vertex 12 22 2
vertex 10 20 2
endloop
endfacet
facet normal 0 0 1
outer loop
vertex 11.1111106872559 30 2
vertex 12 22 2
vertex 14 22 2
endloop
endfacet
facet normal 0 0 1
outer loop
vertex 12 22 2
vertex 16 20 2
vertex 14 22 2
endloop
endfacet
facet normal 0 0 1
outer loop
vertex 14 22 2
vertex 14.8888893127441 30 2
vertex 11.1111106872559 30 2
endloop
endfacet
facet normal 0 0 1
outer loop
vertex 10 60 2
vertex 10 40 2
vertex 16 40 2
endloop
endfacet
facet normal 0 0 1
outer loop
vertex 16 40 2
vertex 10 40 2
vertex 11.1111106872559 30 2
endloop
endfacet
facet normal 0 0 1
outer loop
vertex 11.1111106872559 30 2
vertex 14.8888893127441 30 2
vertex 16 40 2
endloop
endfacet
facet normal 0 0 1
outer loop
vertex 16 40 2
vertex 16 60 2
vertex 10 60 2
endloop
endfacet
facet normal 0 0 1
outer loop
vertex 10 20 2
vertex 10 0 2
vertex 16 0 2
endloop
endfacet
facet normal -0.70710676908493 0.70710676908493 0
outer loop
vertex 12 22 0
vertex 10 20 0
vertex 10 20 1
endloop
endfacet
facet normal -0.70710676908493 0.70710676908493 0
outer loop
vertex 12 22 1
vertex 10 20 1
vertex 10 20 2
endloop
endfacet
facet normal -0.70710676908493 0.70710676908493 0
outer loop
vertex 10 20 2
vertex 12 22 2
vertex 12 22 1
endloop
endfacet
facet normal -0.70710676908493 0.70710676908493 0
outer loop
vertex 10 20 1
vertex 12 22 1
vertex 12 22 0
endloop
endfacet
facet normal -1 0 0
outer loop
vertex 10 60 0
vertex 10 40 0
vertex 10 40 1
endloop
endfacet
facet normal -1 0 0
outer loop
vertex 10 60 1
vertex 10 40 1
vertex 10 40 2
endloop
endfacet
facet normal -1 0 0
outer loop
vertex 10 40 2
vertex 10 60 2
vertex 10 60 1
endloop
endfacet
facet normal -1 0 0
outer loop
vertex 10 40 1
vertex 10 60 1
vertex 10 60 0
endloop
endfacet
facet normal -0.993883788585663 -0.110431529581547 0
outer loop
vertex 10 40 1
vertex 10 40 0
vertex 11.1111106872559 30 0
endloop
endfacet
facet normal -0.993883788585663 -0.110431529581547 0
outer loop
vertex 11.1111106872559 30 0
vertex 12 22 1
vertex 10 40 1
endloop
endfacet
facet normal -0.993883788585663 -0.110431529581547 0
outer loop
vertex 10 40 1
vertex 12 22 1
vertex 11.1111106872559 30 2
endloop
endfacet
facet normal -0.993883788585663 -0.110431529581547 0
outer loop
vertex 12 22 1
vertex 12 22 2
vertex 11.1111106872559 30 2
endloop
endfacet
facet normal -0.993883788585663 -0.110431529581547 0
outer loop
vertex 11.1111106872559 30 2
vertex 10 40 2
vertex 10 40 1
endloop
endfacet
facet normal -0.993883788585663 -0.110431529581547 0
outer loop
vertex 11.1111106872559 30 0
vertex 12 22 0
vertex 12 22 1
endloop
endfacet
facet normal 0 1 0
outer loop
vertex 16 60 2
vertex 16 60 1
vertex 10 60 1
endloop
endfacet
facet normal 0 1 0
outer loop
vertex 10 60 0
vertex 10 60 1
vertex 16 60 1
endloop
endfacet
facet normal 0 1 0
outer loop
vertex 16 60 1
vertex 16 60 0
vertex 10 60 0
endloop
endfacet
facet normal 0 1 0
outer loop
vertex 10 60 1
vertex 10 60 2
vertex 16 60 2
endloop
endfacet
facet normal 0.70710676908493 0.70710676908493 -0
outer loop
vertex 16 20 0
vertex 14 22 0
vertex 14 22 1
endloop
endfacet
facet normal 0.70710676908493 0.70710676908493 -0
outer loop
vertex 16 20 1
vertex 14 22 1
vertex 14 22 2
endloop
endfacet
facet normal 0.70710676908493 0.70710676908493 -0
outer loop
vertex 14 22 2
vertex 16 20 2
vertex 16 20 1
endloop
endfacet
facet normal 0.70710676908493 0.70710676908493 -0
outer loop
vertex 14 22 1
vertex 16 20 1
vertex 16 20 0
endloop
endfacet
facet normal 0.993883788585663 -0.110431529581547 0
outer loop
vertex 16 40 1
vertex 14 22 1
vertex 14.8888893127441 30 0
endloop
endfacet
facet normal 0.993883788585663 -0.110431529581547 0
outer loop
vertex 14 22 1
vertex 14 22 0
vertex 14.8888893127441 30 0
endloop
endfacet
facet normal 0.993883788585663 -0.110431529581547 0
outer loop
vertex 16 40 1
vertex 16 40 2
vertex 14.8888893127441 30 2
endloop
endfacet
facet normal 0.993883788585663 -0.110431529581547 0
outer loop
vertex 14.8888893127441 30 2
vertex 14 22 1
vertex 16 40 1
endloop
endfacet
facet normal 0.993883788585663 -0.110431529581547 0
outer loop
vertex 14.8888893127441 30 2
vertex 14 22 2
vertex 14 22 1
endloop
endfacet
facet normal 0.993883788585663 -0.110431529581547 0
outer loop
vertex 14.8888893127441 30 0
vertex 16 40 0
vertex 16 40 1
endloop
endfacet
facet normal 1 0 0
outer loop
vertex 16 0 0
vertex 16 20 0
vertex 16 20 1
endloop
endfacet
facet normal 1 0 0
outer loop
vertex 16 0 1
vertex 16 20 1
vertex 16 20 2
endloop
endfacet
facet normal 1 0 0
outer loop
vertex 16 20 2
vertex 16 0 2
vertex 16 0 1
endloop
endfacet
facet normal 1 0 0
outer loop
vertex 16 20 1
vertex 16 0 1
vertex 16 0 0
endloop
endfacet
facet normal 1 0 0
outer loop
vertex 16 40 0
vertex 16 60 0
vertex 16 60 1
endloop
endfacet
facet normal 1 0 0
outer loop
vertex 16 40 1
vertex 16 60 1
vertex 16 60 2
endloop
endfacet
facet normal 1 0 0
outer loop
vertex 16 60 2
vertex 16 40 2
vertex 16 40 1
endloop
endfacet
facet normal 1 0 0
outer loop
vertex 16 60 1
vertex 16 40 1
vertex 16 40 0
endloop
endfacet
endsolid COMSOL rendering object dif1
